<!-- Icône logo : Cœur anatomique (SVG) -->
<svg
  xmlns="http://www.w3.org/2000/svg"
  viewBox="0 0 512 512"
  width="420"
  height="420"
  role="img"
  aria-labelledby="title desc"
>
  <title id="title">Icône de cœur anatomique</title>
  <desc id="desc">Logo stylisé d'un cœur humain avec aorte et vaisseaux, en dégradés.</desc>

  <defs>
    <!-- Dégradé principal du cœur -->
    <linearGradient id="gHeart" x1="0" y1="0" x2="0" y2="1">
      <stop offset="0%" stop-color="#ff6a7a"/>
      <stop offset="55%" stop-color="#d62839"/>
      <stop offset="100%" stop-color="#8a0f22"/>
    </linearGradient>

    <!-- Dégradé artères (rouge) -->
    <linearGradient id="gTubeRed" x1="0" y1="0" x2="1" y2="0">
      <stop offset="0%" stop-color="#ff8a9a"/>
      <stop offset="100%" stop-color="#c21734"/>
    </linearGradient>

    <!-- Dégradé veines (bleu) -->
    <linearGradient id="gTubeBlue" x1="0" y1="0" x2="1" y2="0">
      <stop offset="0%" stop-color="#7cc7ff"/>
      <stop offset="100%" stop-color="#2a57a8"/>
    </linearGradient>

    <!-- Highlight doux sur le cœur -->
    <radialGradient id="gHighlight" cx="35%" cy="28%" r="50%">
      <stop offset="0%" stop-color="#ffffff" stop-opacity="0.75"/>
      <stop offset="100%" stop-color="#ffffff" stop-opacity="0"/>
    </radialGradient>

    <!-- Ombre portée très légère -->
    <filter id="shadow" x="-20%" y="-20%" width="140%" height="140%">
      <feDropShadow dx="0" dy="8" stdDeviation="10" flood-color="#000000" flood-opacity="0.18"/>
    </filter>

    <!-- Clip pour le highlight (pour rester à l'intérieur de la forme) -->
    <clipPath id="clipHeart">
      <path d="M256 472
        C212 462,172 438,150 400
        C120 349,129 292,162 260
        C126 248,102 211,116 177
        C132 140,176 136,206 152
        C213 127,240 110,268 114
        C287 83,324 74,353 90
        C383 106,392 138,382 165
        C420 178,446 208,441 244
        C438 271,422 294,397 307
        C411 337,408 375,389 406
        C369 439,332 460,286 472
        C275 475,265 475,256 472 Z"/>
    </clipPath>
  </defs>

  <g filter="url(#shadow)" stroke-linejoin="round">
    <!-- Corps du cœur -->
    <path fill="url(#gHeart)" stroke="#4b0d16" stroke-width="7"
      d="M256 472
         C212 462,172 438,150 400
         C120 349,129 292,162 260
         C126 248,102 211,116 177
         C132 140,176 136,206 152
         C213 127,240 110,268 114
         C287 83,324 74,353 90
         C383 106,392 138,382 165
         C420 178,446 208,441 244
         C438 271,422 294,397 307
         C411 337,408 375,389 406
         C369 439,332 460,286 472
         C275 475,265 475,256 472 Z"/>

    <!-- Aorte (tube rouge, en haut) -->
    <path fill="url(#gTubeRed)" stroke="#4b0d16" stroke-width="7"
      d="M268 118
         C255 116,242 126,237 144
         L237 162
         C237 174,251 180,262 175
         L267 172
         C275 168,279 160,279 150
         L279 140
         C295 134,312 138,322 148
         C334 160,336 179,329 197
         L322 214
         C318 224,326 235,339 238
         C353 241,364 233,368 219
         L378 186
         C388 151,371 117,341 99
         C311 82,283 92,268 118 Z"/>

    <!-- Artère pulmonaire (branche à droite) -->
    <path fill="url(#gTubeBlue)" stroke="#20315f" stroke-width="7"
      d="M324 182
         C355 176,387 184,404 203
         C417 218,417 235,403 242
         C391 248,377 241,372 229
         C366 215,349 206,327 206
         Q318 206,312 207
         L312 191
         Q318 186,324 182 Z"/>

    <!-- Veine (branche à gauche) -->
    <path fill="url(#gTubeBlue)" stroke="#20315f" stroke-width="7"
      d="M222 168
         C205 166,186 171,173 182
         C159 195,159 212,173 219
         C185 225,199 219,205 208
         C212 195,225 188,244 188
         L252 188
         L252 170
         C241 168,231 168,222 168 Z"/>

    <!-- Stries décoratives (logo vibes) -->
    <path d="M196 338 C200 364,222 384,250 392"
          fill="none" stroke="#a3172a" stroke-width="6" opacity="0.4"/>
    <path d="M322 332 C318 360,296 382,266 392"
          fill="none" stroke="#a3172a" stroke-width="6" opacity="0.4"/>

    <!-- Highlight doux à l'intérieur du cœur -->
    <g clip-path="url(#clipHeart)">
      <ellipse cx="220" cy="170" rx="120" ry="90" fill="url(#gHighlight)"/>
    </g>
  </g>
</svg>
